<svg xmlns="http://www.w3.org/2000/svg" width="24" height="27.1" viewBox="0 0 24 27.1"><defs><style>.a{fill:#727272;}</style></defs><path class="a" d="M119.338,259.9c0-.852-.592-1.361-1.636-1.361a3.575,3.575,0,0,0-.866.082v2.737a3.248,3.248,0,0,0,.7.055C118.651,261.415,119.338,260.851,119.338,259.9Z" transform="translate(-112.707 -246.034)"/><path class="a" d="M257.305,259.019a4.364,4.364,0,0,0-.949.082v6.064a3.8,3.8,0,0,0,.729.042c1.9.013,3.135-1.031,3.135-3.245A2.658,2.658,0,0,0,257.305,259.019Z" transform="translate(-245.59 -246.795)"/><path class="a" d="M53.985,9.694h-.651V6.554a.458.458,0,0,0-.006-.059A.521.521,0,0,0,53.2,6.15L47.978.182l0,0a.527.527,0,0,0-.106-.089L47.833.069a.548.548,0,0,0-.1-.044L47.7.015A.53.53,0,0,0,47.577,0H34.736a1.064,1.064,0,0,0-1.063,1.063V9.693h-.651A1.519,1.519,0,0,0,31.5,11.212v7.9a1.519,1.519,0,0,0,1.519,1.519h.651v5.407A1.064,1.064,0,0,0,34.736,27.1H52.272a1.064,1.064,0,0,0,1.063-1.063V20.63h.651A1.519,1.519,0,0,0,55.5,19.111v-7.9A1.519,1.519,0,0,0,53.985,9.694ZM34.736,1.063h12.31V6.5a.531.531,0,0,0,.531.531h4.694V9.694H34.736ZM47.782,15.2a4.022,4.022,0,0,1-1.32,3.214,5.693,5.693,0,0,1-3.66,1.024,15.6,15.6,0,0,1-2.037-.118V11.531a16.056,16.056,0,0,1,2.426-.165,5.109,5.109,0,0,1,3.249.848A3.512,3.512,0,0,1,47.782,15.2ZM33.924,19.361v-7.83a14.749,14.749,0,0,1,2.425-.165A3.8,3.8,0,0,1,38.775,12a2.318,2.318,0,0,1,.847,1.837,2.533,2.533,0,0,1-.73,1.884,3.678,3.678,0,0,1-2.578.836,4.493,4.493,0,0,1-.612-.036v2.837H33.924ZM52.272,25.75H34.736V20.63H52.272V25.75ZM53.811,12.9h-3.05V14.71h2.849v1.46H50.762v3.191h-1.8V11.425h4.85Z" transform="translate(-31.504)"/></svg>