<svg xmlns="http://www.w3.org/2000/svg" width="102.361" height="84.546" viewBox="0 0 102.361 84.546"><defs><style>.a{opacity:0.4;}.b{fill:#c3c2c3;}</style></defs><g class="a" transform="translate(-478.599 -5152.686)"><path class="b" d="M478.6,5191.939q0-19.023,11.323-29.138t29.441-10.115v20.231q-9.363,0-13.739,5.284t-4.378,13.436v5.133h18.117v40.462H478.6Zm61.6,0q0-19.023,11.323-29.138t29.44-10.115v20.231q-9.362,0-13.738,5.284t-4.379,13.436v5.133H580.96v40.462H540.2Z"/><path class="b" d="M478.6,5191.939q0-19.023,11.323-29.138t29.441-10.115v20.231q-9.363,0-13.739,5.284t-4.378,13.436v5.133h18.117v40.462H478.6Zm61.6,0q0-19.023,11.323-29.138t29.44-10.115v20.231q-9.362,0-13.738,5.284t-4.379,13.436v5.133H580.96v40.462H540.2Z"/></g></svg>