<svg xmlns="http://www.w3.org/2000/svg" width="51.082" height="51.081" viewBox="0 0 51.082 51.081"><defs><style>.a{fill:none;stroke:#fff;stroke-miterlimit:10;stroke-width:2.083px;}.b{fill:#fff;}</style></defs><g transform="translate(1.042 1.041)"><g transform="translate(-3531.841 -958.541)"><path class="a" d="M3556.341,1007.539a24.5,24.5,0,1,1,24.5-24.5A24.527,24.527,0,0,1,3556.341,1007.539Z"/></g><path class="b" d="M3565.639,979.008c-6.695,0-6.7,6.671-6.7,6.705,0,0-.458,6.678,6.7,6.678,0,0,5.392.307,5.931-3.939a.629.629,0,0,0-.621-.708h-1.874a.615.615,0,0,0-.594.433c-.164.555-.739,1.444-2.739,1.444a2.835,2.835,0,0,1-3.012-2.32.621.621,0,0,1,.619-.713h7.784a.623.623,0,0,0,.624-.6C3571.818,984.2,3571.49,979.008,3565.639,979.008Zm-2.533,5.243a.364.364,0,0,1-.348-.476,2.98,2.98,0,0,1,2.95-2.209,2.476,2.476,0,0,1,2.625,2.271.364.364,0,0,1-.362.414Zm-8.042-1.555a.259.259,0,0,1-.045-.477,3.078,3.078,0,0,0,1.628-3.006c0-3.119-2.175-4.648-4.937-4.648h-8.625a.459.459,0,0,0-.459.458v16.544a.46.46,0,0,0,.459.459h8.624s5.549.17,5.549-5.158C3557.259,986.868,3557.445,983.483,3555.064,982.7Zm-8.435-4.7a.331.331,0,0,1,.331-.331h4.75s1.232,0,1.232,1.818-.722,2.082-1.547,2.082h-4.435a.331.331,0,0,1-.331-.331Zm4.826,10.928h-4.5a.332.332,0,0,1-.331-.332v-4.011a.331.331,0,0,1,.331-.331h4.75s1.844-.017,1.836,2.405C3553.546,988.7,3552.178,988.908,3551.455,988.925Zm10.429-13.663v1.493a.328.328,0,0,0,.328.329h6.549a.329.329,0,0,0,.329-.329v-1.493a.329.329,0,0,0-.329-.328h-6.549A.328.328,0,0,0,3561.884,975.262Z" transform="translate(-3531.841 -958.541)"/></g></svg>