<svg xmlns="http://www.w3.org/2000/svg" width="24" height="27.1" viewBox="0 0 24 27.1"><defs><style>.a{fill:#727272;}</style></defs><path class="a" d="M53.985,9.694h-.651V6.554a.461.461,0,0,0-.006-.059A.521.521,0,0,0,53.2,6.15L47.978.182l0,0a.522.522,0,0,0-.106-.089L47.833.068a.557.557,0,0,0-.1-.044L47.7.015A.538.538,0,0,0,47.577,0H34.736a1.064,1.064,0,0,0-1.063,1.063V9.693h-.651A1.519,1.519,0,0,0,31.5,11.212v7.9a1.519,1.519,0,0,0,1.519,1.519h.651v5.407A1.064,1.064,0,0,0,34.736,27.1H52.272a1.064,1.064,0,0,0,1.063-1.063V20.63h.651A1.519,1.519,0,0,0,55.5,19.111v-7.9A1.519,1.519,0,0,0,53.985,9.694ZM52.272,25.75H34.736V20.63H52.272V25.75ZM39.491,17.86a2.407,2.407,0,0,0,.883-.117v-1.66H39.15v-1.4H42.1v4.18a8.885,8.885,0,0,1-2.649.447,4.423,4.423,0,0,1-3.226-1.071,3.838,3.838,0,0,1-1.118-2.884c.011-2.637,1.931-4.144,4.533-4.144a5.466,5.466,0,0,1,2.2.388l-.377,1.436a4.4,4.4,0,0,0-1.849-.341,2.4,2.4,0,0,0-2.625,2.566A2.385,2.385,0,0,0,39.491,17.86Zm4.016,1.366V11.291h1.8v7.935Zm8.006-4.65v1.46H48.664v3.19h-1.8V11.291h4.851v1.471h-3.05v1.813h2.849Zm.759-4.882H34.736V1.063h12.31V6.5a.531.531,0,0,0,.531.531h4.694V9.694Z" transform="translate(-31.504)"/></svg>