<svg xmlns="http://www.w3.org/2000/svg" width="51.165" height="51.164" viewBox="0 0 51.165 51.164">
  <g id="Component_20_3" data-name="Component 20 – 3" transform="translate(1.042 1.042)">
    <g id="Group_90" data-name="Group 90" transform="translate(-1429.573 -958.5)">
      <g id="Group_85" data-name="Group 85" transform="translate(-1982)">
        <path id="Path_118" data-name="Path 118" d="M3436.114,1007.581a24.54,24.54,0,1,1,24.541-24.541A24.569,24.569,0,0,1,3436.114,1007.581Z" fill="none" stroke="#f9b436" stroke-miterlimit="10" stroke-width="2.083"/>
      </g>
    </g>
    <g id="Group_125" data-name="Group 125" transform="translate(-1521.776 -958.5)">
      <path id="Path_120" data-name="Path 120" d="M3504.448,973.148a1.8,1.8,0,1,0,1.8,1.8A1.8,1.8,0,0,0,3504.448,973.148Z" transform="translate(-1949.914)" fill="#f9b436"/>
      <path id="Path_121" data-name="Path 121" d="M3496.428,975.462a7.579,7.579,0,1,0,7.578,7.578A7.587,7.587,0,0,0,3496.428,975.462Zm0,12.433a4.855,4.855,0,1,1,4.854-4.855A4.861,4.861,0,0,1,3496.428,987.9Z" transform="translate(-1949.914)" fill="#f9b436"/>
      <rect id="Rectangle_59" data-name="Rectangle 59" width="29.477" height="29.477" rx="7.516" transform="translate(1531.776 968.104)" fill="none" stroke="#f9b436" stroke-miterlimit="10" stroke-width="2.466"/>
    </g>
  </g>
</svg>
