<svg xmlns="http://www.w3.org/2000/svg" width="24" height="27.1" viewBox="0 0 24 27.1"><defs><style>.a{fill:#727272;}</style></defs><path class="a" d="M238.424,250.539a3.555,3.555,0,0,0-.866.083v2.736a3.205,3.205,0,0,0,.7.055c1.114,0,1.8-.564,1.8-1.513C240.061,251.048,239.47,250.539,238.424,250.539Z" transform="translate(-227.587 -238.419)"/><path class="a" d="M53.985,9.694h-.651V6.554a.458.458,0,0,0-.006-.059A.521.521,0,0,0,53.2,6.15L47.978.182l0,0a.527.527,0,0,0-.106-.089L47.833.069a.548.548,0,0,0-.1-.044L47.7.015A.53.53,0,0,0,47.577,0H34.736a1.064,1.064,0,0,0-1.063,1.063V9.693h-.651A1.519,1.519,0,0,0,31.5,11.212v7.9a1.519,1.519,0,0,0,1.519,1.519h.651v5.407A1.064,1.064,0,0,0,34.736,27.1H52.272a1.064,1.064,0,0,0,1.063-1.063V20.63h.651A1.519,1.519,0,0,0,55.5,19.111v-7.9A1.519,1.519,0,0,0,53.985,9.694ZM34.736,1.063h12.31V6.5a.531.531,0,0,0,.531.531h4.694V9.694H34.736ZM45.563,13.445a2.539,2.539,0,0,1-.73,1.884,3.681,3.681,0,0,1-2.578.835,4.508,4.508,0,0,1-.613-.035v2.837H39.864V11.138a14.63,14.63,0,0,1,2.425-.165,3.808,3.808,0,0,1,2.426.636A2.32,2.32,0,0,1,45.563,13.445ZM34.236,18.908l.2-1.448a2.947,2.947,0,0,0,.918.142c.754,0,1.225-.342,1.225-1.578V11.032h1.789v5.015c0,2.261-1.083,3.049-2.826,3.049A4.645,4.645,0,0,1,34.236,18.908ZM52.272,25.75H34.736V20.63H52.272V25.75ZM53.334,18.6a8.879,8.879,0,0,1-2.65.447,4.422,4.422,0,0,1-3.225-1.071,3.837,3.837,0,0,1-1.119-2.884c.011-2.637,1.93-4.144,4.533-4.144a5.462,5.462,0,0,1,2.2.388L52.7,12.774a4.4,4.4,0,0,0-1.849-.341A2.4,2.4,0,0,0,48.225,15,2.6,2.6,0,0,0,51.6,17.483v-1.66H50.379v-1.4h2.955V18.6Z" transform="translate(-31.504)"/></svg>