<svg xmlns="http://www.w3.org/2000/svg" width="51.081" height="51.081" viewBox="0 0 51.081 51.081">
  <g id="linkdin" transform="translate(1.042 1.041)">
    <g id="linkdin-2" data-name="linkdin" transform="translate(-3351.502 -958.541)">
      <path id="Path_124" data-name="Path 124" d="M3376,1007.539a24.5,24.5,0,1,1,24.5-24.5A24.526,24.526,0,0,1,3376,1007.539Z" fill="none" stroke="#f9b436" stroke-miterlimit="10" stroke-width="2.083"/>
    </g>
    <path id="Path_125" data-name="Path 125" d="M3389.852,984.906v9.147a.411.411,0,0,1-.41.41h-4.722a.41.41,0,0,1-.409-.41v-8.507c0-2.239-.8-3.768-2.807-3.768a3.031,3.031,0,0,0-2.842,2.026,3.8,3.8,0,0,0-.183,1.351v8.9a.409.409,0,0,1-.409.409h-4.721a.408.408,0,0,1-.41-.409c.011-2.266.059-13.258.01-15.842a.407.407,0,0,1,.409-.414h4.712a.41.41,0,0,1,.409.409v1.953c-.011.018-.027.037-.037.054h.037v-.054a5.5,5.5,0,0,1,4.994-2.753c3.645,0,6.379,2.382,6.379,7.5Z" transform="translate(-3351.502 -958.541)" fill="#f9b436" stroke="rgba(0,0,0,0)" stroke-width="1"/>
    <rect id="Rectangle_60" data-name="Rectangle 60" width="5.539" height="16.665" rx="0.409" transform="translate(12.833 19.256)" fill="#f9b436" stroke="rgba(0,0,0,0)" stroke-width="1"/>
    <circle id="Ellipse_18" data-name="Ellipse 18" cx="2.966" cy="2.966" r="2.966" transform="translate(12.47 11.205)" fill="#f9b436" stroke="rgba(0,0,0,0)" stroke-width="1"/>
  </g>
</svg>
