<svg xmlns="http://www.w3.org/2000/svg" width="239.706" height="82.499" viewBox="0 0 239.706 82.499"><defs><style>.a{fill:#0f467b;}.b{fill:#0e4d80;}.c{fill:#00a5ac;}.d{fill:#f9b436;}</style></defs><g transform="translate(-50.374 -41.044)"><path class="a" d="M280.772,67.076a8.984,8.984,0,0,1,3.612.732A9.591,9.591,0,0,1,287.34,69.8a9.3,9.3,0,0,1,2.007,2.956,9.072,9.072,0,0,1,.733,3.626A8.97,8.97,0,0,1,289.347,80a9.484,9.484,0,0,1-4.963,4.963,9.285,9.285,0,0,1-7.227,0,9.354,9.354,0,0,1-2.941-2A9.546,9.546,0,0,1,272.223,80a8.9,8.9,0,0,1-.732-3.612,9,9,0,0,1,.732-3.626,9.316,9.316,0,0,1,1.993-2.956,9.441,9.441,0,0,1,2.941-1.993A9,9,0,0,1,280.772,67.076Zm0,17.691a8.092,8.092,0,0,0,3.238-.655,8.6,8.6,0,0,0,2.663-1.8,8.392,8.392,0,0,0,1.8-2.673,8.467,8.467,0,0,0,0-6.531,8.423,8.423,0,0,0-4.462-4.473,8.338,8.338,0,0,0-6.479,0,8.342,8.342,0,0,0-2.649,1.8,8.6,8.6,0,0,0-1.787,2.674,8.455,8.455,0,0,0,0,6.531,8.544,8.544,0,0,0,1.787,2.673,8.42,8.42,0,0,0,2.649,1.8A8.1,8.1,0,0,0,280.772,84.767Zm4.022-5.157A5.4,5.4,0,0,1,283.7,80.7a4.853,4.853,0,0,1-1.363.722,4.964,4.964,0,0,1-3.549-.154,4.974,4.974,0,0,1-1.608-1.132,5.344,5.344,0,0,1-1.077-1.7,5.427,5.427,0,0,1-.4-2.084,5.316,5.316,0,0,1,.4-2.069,5.382,5.382,0,0,1,1.077-1.685,5.13,5.13,0,0,1,1.608-1.143,4.719,4.719,0,0,1,1.981-.425,4.826,4.826,0,0,1,1.594.257,5.1,5.1,0,0,1,1.377.721,4.979,4.979,0,0,1,1.091,1.106,5.136,5.136,0,0,1,.718,1.414h-1a4.28,4.28,0,0,0-1.479-1.864,3.98,3.98,0,0,0-3.883-.363,4.242,4.242,0,0,0-2.212,2.341,4.625,4.625,0,0,0-.319,1.71,4.575,4.575,0,0,0,.319,1.722,4.48,4.48,0,0,0,.886,1.4,4.172,4.172,0,0,0,1.326.952,3.815,3.815,0,0,0,1.608.344,3.773,3.773,0,0,0,2.234-.707,4.224,4.224,0,0,0,1.495-1.864h1A4.741,4.741,0,0,1,284.794,79.61Z"/><rect class="a" width="8.05" height="41.592" transform="translate(99.081 80.699)"/><path class="a" d="M120.814,89.2V84.679q0-1.92-.09-3.98h7.983l-.02,6.709a21.052,21.052,0,0,1,1.878-2.371,13.839,13.839,0,0,1,2.818-2.369,17.652,17.652,0,0,1,3.844-1.834,17.072,17.072,0,0,1,7.513-.581,11.548,11.548,0,0,1,2.1.536L145.054,88.3a11.883,11.883,0,0,0-12.7,3.085,13.232,13.232,0,0,0-2.551,4.07,13.021,13.021,0,0,0-.939,4.92v21.913h-8.05Z"/><path class="a" d="M201.939,62.631h8.05v59.66h-8.05Z"/><path class="a" d="M83.482,111.813A15.131,15.131,0,1,1,72.489,86.291,15.819,15.819,0,0,1,83.937,91.5l5.457-4.626a23.051,23.051,0,0,0-16.9-7.556,22.115,22.115,0,1,0,16.005,37.347Z"/><path class="a" d="M186.155,111.813a15.137,15.137,0,1,1-.02-20.792l5.114-4.735a22.113,22.113,0,1,0-.082,30.375Z"/><path class="a" d="M264.812,103.865a22.111,22.111,0,1,0-21.974,19.678,22.03,22.03,0,0,0,16.012-6.889l-5.052-4.8a15.11,15.11,0,0,1-25.883-7.986h36.9ZM242.838,86.291a15.141,15.141,0,0,1,14.426,10.551H228.412A15.143,15.143,0,0,1,242.838,86.291Z"/><path class="b" d="M280.772,67.076a8.984,8.984,0,0,1,3.612.732A9.591,9.591,0,0,1,287.34,69.8a9.3,9.3,0,0,1,2.007,2.956,9.072,9.072,0,0,1,.733,3.626A8.97,8.97,0,0,1,289.347,80a9.484,9.484,0,0,1-4.963,4.963,9.285,9.285,0,0,1-7.227,0,9.354,9.354,0,0,1-2.941-2A9.546,9.546,0,0,1,272.223,80a8.9,8.9,0,0,1-.732-3.612,9,9,0,0,1,.732-3.626,9.316,9.316,0,0,1,1.993-2.956,9.441,9.441,0,0,1,2.941-1.993A9,9,0,0,1,280.772,67.076Zm0,17.691a8.092,8.092,0,0,0,3.238-.655,8.6,8.6,0,0,0,2.663-1.8,8.392,8.392,0,0,0,1.8-2.673,8.467,8.467,0,0,0,0-6.531,8.423,8.423,0,0,0-4.462-4.473,8.338,8.338,0,0,0-6.479,0,8.342,8.342,0,0,0-2.649,1.8,8.6,8.6,0,0,0-1.787,2.674,8.455,8.455,0,0,0,0,6.531,8.544,8.544,0,0,0,1.787,2.673,8.42,8.42,0,0,0,2.649,1.8A8.1,8.1,0,0,0,280.772,84.767Zm4.022-5.157A5.4,5.4,0,0,1,283.7,80.7a4.853,4.853,0,0,1-1.363.722,4.964,4.964,0,0,1-3.549-.154,4.974,4.974,0,0,1-1.608-1.132,5.344,5.344,0,0,1-1.077-1.7,5.427,5.427,0,0,1-.4-2.084,5.316,5.316,0,0,1,.4-2.069,5.382,5.382,0,0,1,1.077-1.685,5.13,5.13,0,0,1,1.608-1.143,4.719,4.719,0,0,1,1.981-.425,4.826,4.826,0,0,1,1.594.257,5.1,5.1,0,0,1,1.377.721,4.979,4.979,0,0,1,1.091,1.106,5.136,5.136,0,0,1,.718,1.414h-1a4.28,4.28,0,0,0-1.479-1.864,3.98,3.98,0,0,0-3.883-.363,4.242,4.242,0,0,0-2.212,2.341,4.625,4.625,0,0,0-.319,1.71,4.575,4.575,0,0,0,.319,1.722,4.48,4.48,0,0,0,.886,1.4,4.172,4.172,0,0,0,1.326.952,3.815,3.815,0,0,0,1.608.344,3.773,3.773,0,0,0,2.234-.707,4.224,4.224,0,0,0,1.495-1.864h1A4.741,4.741,0,0,1,284.794,79.61Z"/><rect class="b" width="8.05" height="41.592" transform="translate(99.081 80.699)"/><path class="b" d="M120.814,89.2V84.679q0-1.92-.09-3.98h7.983l-.02,6.709a21.052,21.052,0,0,1,1.878-2.371,13.839,13.839,0,0,1,2.818-2.369,17.652,17.652,0,0,1,3.844-1.834,17.072,17.072,0,0,1,7.513-.581,11.548,11.548,0,0,1,2.1.536L145.054,88.3a11.883,11.883,0,0,0-12.7,3.085,13.232,13.232,0,0,0-2.551,4.07,13.021,13.021,0,0,0-.939,4.92v21.913h-8.05Z"/><path class="b" d="M201.939,62.631h8.05v59.66h-8.05Z"/><path class="b" d="M83.482,111.813A15.131,15.131,0,1,1,72.489,86.291,15.819,15.819,0,0,1,83.937,91.5l5.457-4.626a23.051,23.051,0,0,0-16.9-7.556,22.115,22.115,0,1,0,16.005,37.347Z"/><path class="b" d="M186.155,111.813a15.137,15.137,0,1,1-.02-20.792l5.114-4.735a22.113,22.113,0,1,0-.082,30.375Z"/><path class="b" d="M264.812,103.865a22.111,22.111,0,1,0-21.974,19.678,22.03,22.03,0,0,0,16.012-6.889l-5.052-4.8a15.11,15.11,0,0,1-25.883-7.986h36.9ZM242.838,86.291a15.141,15.141,0,0,1,14.426,10.551H228.412A15.143,15.143,0,0,1,242.838,86.291Z"/></g><g transform="translate(-50.374 -41.044)"><path class="c" d="M111.812,59.228a9.3,9.3,0,0,1-6.29,5.656l1.429,5.327a14.806,14.806,0,0,0,8.59-22.4l-4.624,3.005A9.3,9.3,0,0,1,111.812,59.228Z"/><path class="b" d="M99.771,64.593a9.321,9.321,0,1,1,6.675-17.406l1.977-5.155a14.842,14.842,0,1,0-1.472,28.179l-1.429-5.327A9.267,9.267,0,0,1,99.771,64.593Z"/><path class="d" d="M106.446,47.187a9.271,9.271,0,0,1,4.471,3.629l4.624-3.005a14.761,14.761,0,0,0-7.118-5.779Z"/></g></svg>