<svg xmlns="http://www.w3.org/2000/svg" width="45.007" height="45" viewBox="0 0 45.007 45"><defs><style>.a{fill:#00a5ac;}.b{fill:#0e4d80;}.c{fill:#f9b436;}</style></defs><path class="a" d="M1852.934,84.269a14.1,14.1,0,0,1-9.536,8.576l2.167,8.075a22.447,22.447,0,0,0,13.022-33.96l-7.011,4.556A14.1,14.1,0,0,1,1852.934,84.269Z" transform="translate(-1817.233 -56.702)"/><path class="b" d="M1813.12,83.951a14.131,14.131,0,1,1,10.119-26.388l3-7.815a22.5,22.5,0,1,0-2.231,42.72l-2.167-8.075A14.053,14.053,0,0,1,1813.12,83.951Z" transform="translate(-1795.673 -48.25)"/><path class="c" d="M1845.954,58.8a14.054,14.054,0,0,1,6.778,5.5l7.011-4.556a22.374,22.374,0,0,0-10.792-8.76Z" transform="translate(-1818.387 -49.484)"/></svg>