<svg xmlns="http://www.w3.org/2000/svg" width="24" height="27.1" viewBox="0 0 24 27.1"><defs><style>.a{fill:#727272;}</style></defs><path class="a" d="M108.017,255.641c0-.8-.558-1.285-1.545-1.285a3.349,3.349,0,0,0-.816.078v2.582a3.029,3.029,0,0,0,.662.051C107.368,257.068,108.017,256.535,108.017,255.641Z" transform="translate(-102.064 -242.038)"/><path class="a" d="M53.985,9.694h-.651V6.554a.458.458,0,0,0-.006-.059A.521.521,0,0,0,53.2,6.15L47.978.182l0,0a.527.527,0,0,0-.106-.089L47.833.069a.548.548,0,0,0-.1-.044L47.7.015A.53.53,0,0,0,47.577,0H34.736a1.064,1.064,0,0,0-1.063,1.063V9.693h-.651A1.519,1.519,0,0,0,31.5,11.212v7.9a1.519,1.519,0,0,0,1.519,1.519h.651v5.407A1.064,1.064,0,0,0,34.736,27.1H52.272a1.064,1.064,0,0,0,1.063-1.063V20.63h.651A1.519,1.519,0,0,0,55.5,19.111v-7.9A1.519,1.519,0,0,0,53.985,9.694ZM34.736,1.063h12.31V6.5a.531.531,0,0,0,.531.531h4.694V9.694H34.736Zm6.748,15.462V18.78H39.929V11.293h1.977l1.555,2.743A21.614,21.614,0,0,1,44.683,16.6h.033a27.8,27.8,0,0,1-.144-3.121V11.293h1.555V18.78H44.35l-1.6-2.888a27.782,27.782,0,0,1-1.3-2.643l-.033.011C41.462,14.248,41.484,15.3,41.484,16.525ZM33.475,18.78V11.393a13.875,13.875,0,0,1,2.288-.155,3.591,3.591,0,0,1,2.288.6,2.19,2.19,0,0,1,.8,1.733,2.391,2.391,0,0,1-.689,1.777,3.471,3.471,0,0,1-2.433.789,4.31,4.31,0,0,1-.577-.033V18.78H33.475Zm18.8,6.97H34.736V20.63H52.272V25.75Zm1.577-7.314a8.388,8.388,0,0,1-2.5.422,4.173,4.173,0,0,1-3.043-1.011,3.623,3.623,0,0,1-1.055-2.722c.011-2.488,1.822-3.91,4.276-3.91a5.15,5.15,0,0,1,2.077.366l-.355,1.355a4.15,4.15,0,0,0-1.745-.322,2.266,2.266,0,0,0-2.477,2.422,2.453,2.453,0,0,0,3.189,2.344V15.814H51.06V14.492h2.789v3.944Z" transform="translate(-31.504)"/></svg>