<svg xmlns="http://www.w3.org/2000/svg" width="51.165" height="51.164" viewBox="0 0 51.165 51.164">
  <g id="Facebook" transform="translate(1.042 1.041)">
    <g id="Group_90" data-name="Group 90" transform="translate(-1429.573 -958.5)">
      <g id="Group_85" data-name="Group 85" transform="translate(-1982)">
        <path id="Path_118" data-name="Path 118" d="M3436.114,1007.581a24.54,24.54,0,1,1,24.541-24.541A24.569,24.569,0,0,1,3436.114,1007.581Z" fill="none" stroke="#f9b436" stroke-miterlimit="10" stroke-width="2.083"/>
      </g>
      <path id="Path_119" data-name="Path 119" d="M3432.266,983.156v14.223a.37.37,0,0,0,.37.371h5.282a.371.371,0,0,0,.371-.371V982.924h3.829a.37.37,0,0,0,.369-.339l.368-4.355a.37.37,0,0,0-.369-.4h-4.2v-3.09a1.311,1.311,0,0,1,1.311-1.311h2.951a.371.371,0,0,0,.371-.371V968.7a.37.37,0,0,0-.371-.37h-4.987a5.3,5.3,0,0,0-5.3,5.3v4.2h-2.641a.371.371,0,0,0-.371.371v4.355a.371.371,0,0,0,.371.37h2.641Z" transform="translate(-1982)" fill="#f9b436"/>
    </g>
  </g>
</svg>
