<svg xmlns="http://www.w3.org/2000/svg" width="61.166" height="61.166" viewBox="0 0 61.166 61.166">
  <g id="Instagram" transform="translate(1.253 1.253)">
    <g id="Group_87" data-name="Group 87" transform="translate(-3466.897 -953.71)">
      <g id="Group_86" data-name="Group 86">
        <circle id="Ellipse_17" data-name="Ellipse 17" cx="24.381" cy="24.381" r="24.381" transform="matrix(0.23, -0.973, 0.973, 0.23, 3466.897, 1001.167)" fill="none" stroke="#f9b436" stroke-miterlimit="10" stroke-width="2.083"/>
      </g>
    </g>
    <path id="Path_120" data-name="Path 120" d="M3504.448,973.148a1.8,1.8,0,1,0,1.8,1.8A1.8,1.8,0,0,0,3504.448,973.148Z" transform="translate(-3466.897 -953.71)" fill="#f9b436"/>
    <path id="Path_121" data-name="Path 121" d="M3496.428,975.462a7.579,7.579,0,1,0,7.578,7.578A7.587,7.587,0,0,0,3496.428,975.462Zm0,12.433a4.855,4.855,0,1,1,4.854-4.855A4.861,4.861,0,0,1,3496.428,987.9Z" transform="translate(-3466.897 -953.71)" fill="#f9b436"/>
    <rect id="Rectangle_59" data-name="Rectangle 59" width="29.477" height="29.477" rx="7.516" transform="translate(14.792 14.393)" fill="none" stroke="#f9b436" stroke-miterlimit="10" stroke-width="2.466"/>
  </g>
</svg>
