<svg xmlns="http://www.w3.org/2000/svg" width="42.083" height="42.083" viewBox="0 0 42.083 42.083"><defs><style>.a{fill:#fff;}.b{fill:none;stroke:#fff;stroke-miterlimit:10;stroke-width:2.083px;}</style></defs><g transform="translate(-1055.42 -34.959)"><path class="a" d="M3560.281,977.974c-5.136,0-5.143,5.118-5.143,5.144a4.754,4.754,0,0,0,5.143,5.123s4.137.236,4.55-3.022a.482.482,0,0,0-.477-.543h-1.438a.472.472,0,0,0-.456.332c-.126.426-.567,1.108-2.1,1.108a2.175,2.175,0,0,1-2.311-1.78.477.477,0,0,1,.475-.547h5.972a.477.477,0,0,0,.479-.46C3565.022,981.956,3564.77,977.974,3560.281,977.974ZM3558.338,982a.279.279,0,0,1-.267-.365,2.286,2.286,0,0,1,2.263-1.695,1.9,1.9,0,0,1,2.014,1.742.279.279,0,0,1-.278.318Zm-6.17-1.193a.2.2,0,0,1-.034-.366,2.361,2.361,0,0,0,1.249-2.306c0-2.393-1.668-3.566-3.788-3.566h-6.617a.352.352,0,0,0-.352.351v12.692a.352.352,0,0,0,.352.352h6.616s4.257.13,4.257-3.957C3553.852,984,3553.995,981.407,3552.168,980.8Zm-6.471-3.6a.254.254,0,0,1,.254-.254h3.644s.945,0,.945,1.395-.554,1.6-1.187,1.6h-3.4a.254.254,0,0,1-.254-.254Zm3.7,8.384h-3.448a.254.254,0,0,1-.254-.255V982.25a.254.254,0,0,1,.254-.254h3.644s1.415-.013,1.409,1.845C3551,985.405,3549.954,985.569,3549.4,985.582Zm8-10.482v1.145a.252.252,0,0,0,.252.252h5.024a.253.253,0,0,0,.252-.252V975.1a.253.253,0,0,0-.252-.252h-5.024A.252.252,0,0,0,3557.4,975.1Z" transform="translate(-2477.165 -925.565)"/><g transform="translate(-2295.041 -922.541)"><path class="b" d="M3371.5,998.541a20,20,0,1,1,20-20A20.023,20.023,0,0,1,3371.5,998.541Z"/></g></g></svg>