<svg xmlns="http://www.w3.org/2000/svg" width="42.083" height="42.083" viewBox="0 0 42.083 42.083"><defs><style>.a{fill:#fff;}.b{fill:none;stroke:#fff;stroke-miterlimit:10;stroke-width:2.083px;}</style></defs><g transform="translate(-897.42 -34.959)"><path class="a" d="M3431.28,978.3v9.565a.249.249,0,0,0,.249.249h3.552a.249.249,0,0,0,.25-.249v-9.721h2.575a.249.249,0,0,0,.248-.228l.248-2.929a.249.249,0,0,0-.248-.27h-2.823V972.64a.882.882,0,0,1,.882-.882h1.985a.25.25,0,0,0,.25-.25V968.58a.249.249,0,0,0-.25-.249h-3.354a3.563,3.563,0,0,0-3.563,3.563v2.824H3429.5a.25.25,0,0,0-.25.25V977.9a.249.249,0,0,0,.25.249h1.776Z" transform="translate(-2515.793 -922.331)"/><g transform="translate(-2453.041 -922.541)"><path class="b" d="M3371.5,998.541a20,20,0,1,1,20-20A20.023,20.023,0,0,1,3371.5,998.541Z"/></g></g></svg>