<svg xmlns="http://www.w3.org/2000/svg" width="42.083" height="42.083" viewBox="0 0 42.083 42.083"><defs><style>.a{fill:#fff;}.b,.c{fill:none;stroke:#fff;stroke-miterlimit:10;}.b{stroke-width:2px;}.c{stroke-width:2.083px;}</style></defs><g transform="translate(-980.42 -34.959)"><g transform="translate(-0.134 -0.463)"><path class="a" d="M3503.748,973.148a1.1,1.1,0,1,0,1.1,1.1A1.1,1.1,0,0,0,3503.748,973.148Z" transform="translate(-2496.049 -924.218)"/><path class="a" d="M3493.473,975.462a4.623,4.623,0,1,0,4.623,4.623A4.628,4.628,0,0,0,3493.473,975.462Zm0,7.585a2.962,2.962,0,1,1,2.961-2.962A2.965,2.965,0,0,1,3493.473,983.047Z" transform="translate(-2492.139 -923.686)"/><rect class="b" width="21.477" height="21.477" rx="5" transform="translate(990.595 45.463)"/></g><path class="c" d="M3371.5,998.541a20,20,0,1,1,20-20A20.023,20.023,0,0,1,3371.5,998.541Z" transform="translate(-2370.041 -922.541)"/></g></svg>