<svg xmlns="http://www.w3.org/2000/svg" width="42.083" height="42.083" viewBox="0 0 42.083 42.083"><defs><style>.a{fill:none;stroke:#fff;stroke-miterlimit:10;stroke-width:2.083px;}.b{fill:#fff;}</style></defs><g transform="translate(-824.42 -34.959)"><g transform="translate(-2526.041 -922.541)"><path class="a" d="M3371.5,998.541a20,20,0,1,1,20-20A20.023,20.023,0,0,1,3371.5,998.541Z"/></g><g transform="translate(-1.372 0.064)"><path class="b" d="M3385.261,982.87v6.664a.3.3,0,0,1-.3.3h-3.44a.3.3,0,0,1-.3-.3v-6.2c0-1.631-.583-2.745-2.045-2.745a2.208,2.208,0,0,0-2.07,1.476,2.763,2.763,0,0,0-.134.984v6.483a.3.3,0,0,1-.3.3h-3.439a.3.3,0,0,1-.3-.3c.008-1.651.043-9.659.007-11.542a.3.3,0,0,1,.3-.3h3.433a.3.3,0,0,1,.3.3v1.423c-.008.013-.02.027-.027.039h.027v-.039a4.01,4.01,0,0,1,3.638-2.006c2.656,0,4.648,1.735,4.648,5.464Z" transform="translate(-2528.745 -925.396)"/><rect class="b" width="4.13" height="12" rx="0.409" transform="translate(838.833 52.224)"/><circle class="b" cx="2.065" cy="2.065" r="2.065" transform="translate(838.833 46.936)"/></g></g></svg>