<svg xmlns="http://www.w3.org/2000/svg" width="51.165" height="51.164" viewBox="0 0 51.165 51.164"><defs><style>.a{fill:none;stroke:#fff;stroke-miterlimit:10;stroke-width:2.083px;}.b{fill:#fff;}</style></defs><g transform="translate(1.042 1.041)"><g transform="translate(-1429.573 -958.5)"><g transform="translate(-1982)"><path class="a" d="M3436.114,1007.581a24.54,24.54,0,1,1,24.541-24.541A24.569,24.569,0,0,1,3436.114,1007.581Z"/></g><path class="b" d="M3432.266,983.156v14.223a.37.37,0,0,0,.37.371h5.282a.371.371,0,0,0,.371-.371V982.924h3.829a.37.37,0,0,0,.369-.339l.368-4.355a.37.37,0,0,0-.369-.4h-4.2v-3.09a1.311,1.311,0,0,1,1.311-1.311h2.951a.371.371,0,0,0,.371-.371V968.7a.37.37,0,0,0-.371-.37h-4.987a5.3,5.3,0,0,0-5.3,5.3v4.2h-2.641a.371.371,0,0,0-.371.371v4.355a.371.371,0,0,0,.371.37h2.641Z" transform="translate(-1982)"/></g></g></svg>