<svg xmlns="http://www.w3.org/2000/svg" width="61.166" height="61.166" viewBox="0 0 61.166 61.166"><defs><style>.a,.c{fill:none;stroke:#fff;stroke-miterlimit:10;}.a{stroke-width:2.083px;}.b{fill:#fff;}.c{stroke-width:2.466px;}</style></defs><g transform="translate(1.253 1.253)"><g transform="translate(-3466.897 -953.71)"><circle class="a" cx="24.381" cy="24.381" r="24.381" transform="matrix(0.23, -0.973, 0.973, 0.23, 3466.897, 1001.167)"/></g><path class="b" d="M3504.448,973.148a1.8,1.8,0,1,0,1.8,1.8A1.8,1.8,0,0,0,3504.448,973.148Z" transform="translate(-3466.897 -953.71)"/><path class="b" d="M3496.428,975.462a7.579,7.579,0,1,0,7.578,7.578A7.587,7.587,0,0,0,3496.428,975.462Zm0,12.433a4.855,4.855,0,1,1,4.854-4.855A4.861,4.861,0,0,1,3496.428,987.9Z" transform="translate(-3466.897 -953.71)"/><rect class="c" width="29.477" height="29.477" rx="7.516" transform="translate(14.792 14.393)"/></g></svg>